<svg version="1.0" preserveAspectRatio="xMidYMid meet" height="175" viewBox="0 0 131.25 131.249998" zoomAndPan="magnify" width="175" xmlns:xlink="http://www.w3.org/1999/xlink" xmlns="http://www.w3.org/2000/svg"><path fill-rule="nonzero" fill-opacity="1" d="M 86.847656 62.085938 L 116.582031 62.085938 L 116.582031 63.136719 L 86.847656 63.136719 Z M 86.847656 62.085938" fill="#c6b259"></path><path fill-rule="nonzero" fill-opacity="1" d="M 11.261719 62.085938 L 41 62.085938 L 41 63.136719 L 11.261719 63.136719 Z M 11.261719 62.085938" fill="#c6b259"></path><path fill-rule="nonzero" fill-opacity="1" d="M 11.152344 77.09375 L 21.871094 77.09375 L 21.871094 77.46875 C 21.0625 77.542969 20.46875 77.675781 20.121094 77.84375 C 19.78125 78 19.515625 78.253906 19.308594 78.59375 C 19.105469 78.929688 18.996094 79.304688 18.996094 79.703125 C 18.996094 79.980469 19.019531 80.234375 19.082031 80.453125 C 19.128906 80.671875 19.296875 81.140625 19.5625 81.867188 L 24.371094 94.941406 L 29.039062 83.472656 C 29.691406 81.867188 30.015625 80.683594 30.015625 79.945312 C 30.015625 79.535156 29.957031 79.148438 29.824219 78.796875 C 29.691406 78.433594 29.519531 78.167969 29.304688 77.964844 C 29.085938 77.78125 28.84375 77.648438 28.589844 77.578125 C 28.324219 77.503906 27.996094 77.46875 27.585938 77.46875 L 27.585938 77.09375 L 34.800781 77.09375 L 34.800781 77.46875 C 34.210938 77.515625 33.6875 77.675781 33.253906 77.902344 C 32.820312 78.144531 32.394531 78.507812 31.996094 78.992188 C 31.730469 79.339844 31.441406 79.8125 31.140625 80.417969 C 30.835938 81.019531 30.4375 81.953125 29.917969 83.195312 L 23.261719 99.253906 L 22.585938 99.253906 L 16.109375 82.652344 C 15.261719 80.476562 14.585938 79.101562 14.078125 78.507812 C 13.75 78.144531 13.351562 77.867188 12.882812 77.699219 C 12.410156 77.527344 11.828125 77.445312 11.152344 77.445312 Z M 11.152344 77.09375" fill="#414042"></path><path fill-rule="nonzero" fill-opacity="1" d="M 47.078125 77.09375 L 47.078125 77.46875 C 46.460938 77.503906 45.953125 77.589844 45.578125 77.734375 C 45.191406 77.878906 44.855469 78.097656 44.550781 78.410156 C 44.128906 78.847656 43.875 79.449219 43.765625 80.210938 C 43.707031 80.792969 43.671875 81.445312 43.671875 82.195312 L 43.671875 94.15625 C 43.671875 95.050781 43.71875 95.761719 43.804688 96.28125 C 43.886719 96.800781 44.03125 97.214844 44.226562 97.527344 C 44.503906 97.960938 44.867188 98.277344 45.3125 98.496094 C 45.761719 98.699219 46.351562 98.832031 47.078125 98.882812 L 47.078125 99.253906 L 36.699219 99.253906 L 36.699219 98.882812 C 37.328125 98.84375 37.835938 98.761719 38.222656 98.617188 C 38.609375 98.46875 38.945312 98.242188 39.234375 97.9375 C 39.585938 97.589844 39.816406 97.152344 39.9375 96.621094 C 40.058594 96.089844 40.117188 95.269531 40.117188 94.15625 L 40.117188 82.195312 C 40.117188 81.082031 40.058594 80.261719 39.9375 79.726562 C 39.816406 79.195312 39.585938 78.761719 39.234375 78.410156 C 38.945312 78.097656 38.609375 77.867188 38.207031 77.734375 C 37.820312 77.589844 37.316406 77.503906 36.699219 77.46875 L 36.699219 77.09375 Z M 47.078125 77.09375" fill="#414042"></path><path fill-rule="nonzero" fill-opacity="1" d="M 50.328125 99.253906 L 50.328125 98.867188 C 51.417969 98.867188 52.261719 98.554688 52.867188 97.9375 C 53.203125 97.589844 53.433594 97.152344 53.554688 96.609375 C 53.675781 96.078125 53.738281 95.257812 53.738281 94.144531 L 53.738281 82.179688 C 53.738281 81.035156 53.664062 80.1875 53.53125 79.644531 C 53.398438 79.101562 53.144531 78.652344 52.78125 78.300781 C 52.480469 78.023438 52.140625 77.820312 51.765625 77.6875 C 51.390625 77.554688 50.910156 77.480469 50.328125 77.457031 L 50.328125 77.09375 L 60.707031 77.09375 L 60.707031 77.46875 C 60.117188 77.503906 59.621094 77.578125 59.246094 77.710938 C 58.871094 77.84375 58.535156 78.046875 58.242188 78.328125 C 57.882812 78.6875 57.628906 79.136719 57.496094 79.679688 C 57.363281 80.222656 57.300781 81.058594 57.300781 82.195312 L 57.300781 91.558594 C 57.300781 92.996094 57.335938 94.070312 57.410156 94.773438 C 57.480469 95.472656 57.628906 96.054688 57.84375 96.488281 C 58.21875 97.273438 58.789062 97.84375 59.535156 98.203125 C 60.285156 98.566406 61.277344 98.75 62.507812 98.75 C 63.800781 98.75 64.878906 98.578125 65.757812 98.242188 C 66.640625 97.902344 67.367188 97.371094 67.921875 96.65625 C 68.296875 96.175781 68.613281 95.617188 68.851562 95.003906 C 69.09375 94.386719 69.324219 93.578125 69.53125 92.5625 L 69.917969 92.597656 L 69.710938 99.253906 Z M 50.328125 99.253906" fill="#414042"></path><path fill-rule="nonzero" fill-opacity="1" d="M 72.273438 99.253906 L 72.273438 98.867188 C 73.359375 98.867188 74.207031 98.554688 74.808594 97.9375 C 75.148438 97.589844 75.378906 97.152344 75.5 96.609375 C 75.621094 96.078125 75.679688 95.257812 75.679688 94.144531 L 75.679688 82.179688 C 75.679688 81.035156 75.609375 80.1875 75.476562 79.644531 C 75.34375 79.101562 75.089844 78.652344 74.726562 78.300781 C 74.421875 78.023438 74.085938 77.820312 73.710938 77.6875 C 73.335938 77.554688 72.851562 77.480469 72.273438 77.457031 L 72.273438 77.09375 L 82.652344 77.09375 L 82.652344 77.46875 C 82.0625 77.503906 81.566406 77.578125 81.191406 77.710938 C 80.816406 77.84375 80.476562 78.046875 80.1875 78.328125 C 79.824219 78.6875 79.570312 79.136719 79.4375 79.679688 C 79.304688 80.222656 79.246094 81.058594 79.246094 82.195312 L 79.246094 91.558594 C 79.246094 92.996094 79.28125 94.070312 79.355469 94.773438 C 79.425781 95.472656 79.570312 96.054688 79.789062 96.488281 C 80.164062 97.273438 80.730469 97.84375 81.480469 98.203125 C 82.230469 98.566406 83.21875 98.75 84.453125 98.75 C 85.746094 98.75 86.820312 98.578125 87.703125 98.242188 C 88.585938 97.902344 89.3125 97.371094 89.867188 96.65625 C 90.242188 96.175781 90.554688 95.617188 90.796875 95.003906 C 91.039062 94.386719 91.269531 93.578125 91.472656 92.5625 L 91.859375 92.597656 L 91.65625 99.253906 Z M 72.273438 99.253906" fill="#414042"></path><path fill-rule="nonzero" fill-opacity="1" d="M 116.824219 99.253906 L 106.15625 99.253906 L 106.15625 98.882812 C 107.121094 98.796875 107.785156 98.628906 108.171875 98.398438 C 108.851562 97.976562 109.175781 97.394531 109.175781 96.644531 C 109.175781 96.199219 109.019531 95.605469 108.71875 94.855469 L 108.4375 94.179688 L 106.878906 90.351562 L 99.738281 90.351562 L 98.894531 92.585938 L 98.480469 93.589844 C 98 94.785156 97.757812 95.714844 97.757812 96.390625 C 97.757812 96.789062 97.84375 97.164062 98.023438 97.515625 C 98.203125 97.867188 98.445312 98.144531 98.75 98.363281 C 99.171875 98.652344 99.714844 98.832031 100.367188 98.882812 L 100.367188 99.253906 L 93.09375 99.253906 L 93.09375 98.882812 C 93.660156 98.84375 94.167969 98.710938 94.601562 98.457031 C 95.039062 98.203125 95.460938 97.804688 95.871094 97.261719 C 96.222656 96.816406 96.5625 96.246094 96.886719 95.546875 C 97.214844 94.84375 97.648438 93.804688 98.191406 92.402344 L 104.136719 77.09375 L 105.066406 77.09375 L 112.136719 94.15625 C 112.667969 95.449219 113.089844 96.367188 113.40625 96.910156 C 113.71875 97.46875 114.058594 97.878906 114.433594 98.15625 C 114.699219 98.347656 114.988281 98.496094 115.328125 98.601562 C 115.664062 98.710938 116.160156 98.796875 116.835938 98.867188 L 116.835938 99.253906 Z M 106.625 89.671875 L 103.21875 81.261719 L 100.003906 89.671875 Z M 106.625 89.671875" fill="#414042"></path><path fill-rule="nonzero" fill-opacity="1" d="M 52.359375 60.066406 L 49.578125 60.066406 L 49.578125 58.726562 L 56.695312 58.726562 L 56.695312 60.066406 L 53.917969 60.066406 L 53.917969 66.519531 L 52.359375 66.519531 Z M 52.359375 60.066406" fill="#414042"></path><path fill-rule="nonzero" fill-opacity="1" d="M 60.660156 58.726562 L 62.21875 58.726562 L 62.21875 61.953125 L 65.785156 61.953125 L 65.785156 58.726562 L 67.34375 58.726562 L 67.34375 66.519531 L 65.785156 66.519531 L 65.785156 63.292969 L 62.21875 63.292969 L 62.21875 66.519531 L 60.660156 66.519531 Z M 60.660156 58.726562" fill="#414042"></path><path fill-rule="nonzero" fill-opacity="1" d="M 73.710938 66.316406 C 73.3125 66.183594 72.949219 65.953125 72.648438 65.652344 C 72.34375 65.347656 72.105469 64.949219 71.933594 64.453125 C 71.765625 63.960938 71.667969 63.355469 71.667969 62.628906 C 71.667969 61.90625 71.753906 61.300781 71.933594 60.804688 C 72.105469 60.308594 72.34375 59.910156 72.648438 59.609375 C 72.949219 59.308594 73.300781 59.089844 73.710938 58.945312 C 74.109375 58.8125 74.542969 58.738281 75.003906 58.738281 L 77.890625 58.738281 L 77.890625 60.082031 L 75.222656 60.082031 C 74.980469 60.082031 74.75 60.117188 74.53125 60.175781 C 74.316406 60.238281 74.121094 60.347656 73.953125 60.492188 C 73.785156 60.636719 73.625 60.828125 73.503906 61.070312 C 73.382812 61.3125 73.300781 61.613281 73.25 61.976562 L 77.890625 61.976562 L 77.890625 63.320312 L 73.25 63.320312 C 73.300781 63.679688 73.382812 63.984375 73.503906 64.226562 C 73.625 64.464844 73.769531 64.660156 73.953125 64.804688 C 74.121094 64.949219 74.328125 65.058594 74.53125 65.121094 C 74.75 65.179688 74.980469 65.214844 75.222656 65.214844 L 77.890625 65.214844 L 77.890625 66.558594 L 75.003906 66.558594 C 74.554688 66.519531 74.121094 66.449219 73.710938 66.316406 Z M 73.710938 66.316406" fill="#414042"></path><path fill-rule="nonzero" fill-opacity="1" d="M 65.734375 41.375 C 65.785156 41.375 65.832031 41.375 65.878906 41.375 L 66.375 40.152344 C 65.988281 40.167969 65.613281 40.140625 65.265625 40.105469 C 65.082031 40.082031 64.902344 40.058594 64.746094 40.019531 C 63.125 39.707031 62.039062 38.921875 61.492188 38.402344 C 60.371094 37.328125 61.265625 36.179688 62.460938 35.78125 C 61.53125 35.25 60.707031 35.9375 60.625 36.007812 C 60.660156 35.949219 61.011719 35.441406 61.082031 35.273438 C 61.15625 35.089844 61.035156 34.027344 61.035156 34.027344 C 61.035156 34.027344 61.375 33.386719 61.265625 33.109375 C 61.167969 32.832031 60.804688 32.601562 60.9375 32.324219 C 61.058594 32.046875 61.011719 31.453125 60.78125 31.078125 C 60.550781 30.691406 60.648438 30.464844 60.273438 28.988281 C 59.898438 27.539062 57.664062 26.171875 57.578125 26.113281 C 57.613281 26.171875 58.304688 27.199219 58.75 28.710938 C 59.210938 30.269531 59.113281 32.25 59.027344 33.4375 C 58.957031 34.582031 59.320312 37.023438 59.332031 37.132812 C 59.292969 37.074219 58.617188 36.140625 58.546875 33.894531 C 58.472656 31.574219 58.882812 30.582031 57.761719 28.3125 C 56.636719 26.039062 55.972656 25.328125 56.152344 22.824219 C 54.679688 23.5625 55.113281 25.859375 55.113281 25.859375 C 52.515625 23.175781 53.191406 19.625 56.152344 20.300781 C 57.867188 20.6875 58.460938 21.605469 58.640625 22.609375 C 58.691406 22.875 58.714844 23.152344 58.714844 23.429688 C 58.726562 23.902344 58.691406 24.371094 58.679688 24.796875 C 58.628906 26.378906 59.5 26.5 59.753906 26.453125 L 59.765625 26.453125 C 59.851562 26.4375 60.042969 26.425781 60.226562 26.355469 C 60.613281 26.183594 60.988281 25.652344 60.296875 23.902344 C 60.007812 23.152344 59.632812 22.5 59.210938 21.96875 C 59.101562 21.824219 58.980469 21.679688 58.859375 21.546875 C 57.917969 20.492188 56.84375 19.949219 56.03125 19.855469 C 54.75 19.695312 54.015625 20.359375 54.015625 20.359375 L 54.183594 19.308594 C 54.257812 19.25 54.316406 19.1875 54.390625 19.128906 C 54.546875 18.984375 54.679688 18.828125 54.8125 18.65625 C 55.730469 17.472656 55.960938 15.902344 55.730469 14.136719 C 55.269531 15.636719 52.746094 17.425781 52.625 18.5 C 52.613281 18.5625 52.613281 18.609375 52.601562 18.667969 C 52.5625 18.863281 52.539062 19.019531 52.503906 19.140625 C 52.371094 19.574219 52.175781 19.585938 51.984375 19.734375 C 51.851562 19.839844 51.765625 20.214844 51.839844 20.773438 C 51.875 21.085938 51.972656 21.449219 52.128906 21.859375 C 52.25 22.148438 52.394531 22.464844 52.601562 22.789062 C 52.601562 22.742188 52.589844 22.691406 52.589844 22.644531 C 52.5625 22.304688 52.5625 21.992188 52.578125 21.691406 C 52.671875 20.191406 53.277344 19.273438 53.351562 19.152344 C 53.300781 19.25 53.058594 19.855469 52.902344 21.785156 C 52.890625 21.933594 52.890625 22.078125 52.890625 22.222656 C 52.902344 22.8125 53.023438 23.382812 53.191406 23.878906 C 53.335938 24.191406 53.484375 24.53125 53.640625 24.890625 C 53.640625 24.890625 53.640625 24.90625 53.640625 24.90625 C 53.90625 25.398438 54.148438 25.714844 54.195312 25.773438 C 54.171875 25.75 54.0625 25.640625 53.882812 25.484375 C 53.386719 25.0625 52.308594 24.289062 50.667969 23.878906 C 46.617188 22.863281 46.535156 21.96875 46.460938 21.21875 C 46.390625 20.480469 47.910156 20.023438 47.660156 18.695312 C 47.40625 17.363281 47.683594 17.242188 48.042969 16.90625 C 48.40625 16.578125 49.628906 15.988281 49.605469 14.148438 C 49.398438 14.886719 49.046875 15.25 48.226562 15.78125 C 47.40625 16.3125 44.457031 17.570312 44.457031 19.273438 C 44.457031 23.128906 49.90625 24.503906 51.621094 25.132812 C 50.171875 26.101562 49.90625 26.886719 49.90625 26.886719 C 49.90625 26.886719 52.335938 26.148438 55.066406 28.433594 C 55.101562 28.46875 55.148438 28.503906 55.1875 28.542969 C 55.441406 28.757812 55.667969 28.988281 55.863281 29.21875 C 57.191406 30.703125 57.386719 32.238281 57.375 33.085938 C 57.363281 33.507812 57.300781 33.773438 57.300781 33.773438 C 57.167969 33.507812 56.550781 30.898438 54.691406 30.101562 C 52.792969 29.289062 50.714844 30.402344 50.085938 32.46875 C 49.121094 35.648438 52.175781 36.359375 52.347656 36.394531 C 50.027344 35.671875 50.242188 31.875 52.457031 31.210938 C 55.296875 30.34375 56.417969 33.640625 56.417969 33.640625 C 56.417969 33.640625 55.089844 31.40625 53.230469 31.828125 C 50.496094 32.457031 50.957031 36.082031 52.890625 36.082031 C 54.824219 36.082031 53.808594 34.449219 53.808594 34.449219 C 53.964844 35.441406 52.890625 35.117188 52.660156 34.8125 C 52.429688 34.511719 52.191406 32.964844 53.664062 32.78125 C 55.148438 32.601562 55.234375 34.050781 55.234375 34.050781 L 54.691406 34.003906 C 55.949219 36.300781 57.640625 38.0625 59.234375 39.164062 C 59.453125 39.320312 59.679688 39.464844 59.898438 39.597656 C 61.808594 40.757812 63.730469 41.242188 65.265625 41.375 C 65.410156 41.351562 65.578125 41.363281 65.734375 41.375 Z M 65.734375 41.375" fill="#c6b259"></path><path fill-rule="nonzero" fill-opacity="1" d="M 71.003906 38.921875 C 70.074219 39.367188 69.214844 39.683594 68.417969 39.875 C 68.226562 39.925781 68.042969 39.960938 67.863281 39.996094 L 67.332031 41.277344 C 67.523438 41.242188 67.707031 41.195312 67.886719 41.144531 C 68.550781 40.953125 69.132812 40.671875 69.625 40.359375 C 70.011719 39.804688 70.472656 39.320312 71.003906 38.921875 Z M 71.003906 38.921875" fill="#c6b259"></path><path fill-rule="nonzero" fill-opacity="1" d="M 59.863281 26.863281 C 59.839844 26.863281 59.828125 26.863281 59.8125 26.875 C 59.765625 26.886719 59.695312 26.886719 59.632812 26.886719 C 59.535156 26.886719 59.441406 26.875 59.34375 26.851562 C 59.695312 27.175781 60.042969 27.550781 60.308594 27.960938 L 59.898438 26.851562 C 59.886719 26.863281 59.875 26.863281 59.863281 26.863281 Z M 59.863281 26.863281" fill="#e2c675"></path><path fill-rule="nonzero" fill-opacity="1" d="M 48.179688 19.574219 C 49.085938 19.574219 49.859375 19.683594 50.484375 19.914062 C 50.789062 20.023438 51.066406 20.15625 51.320312 20.324219 C 51.320312 19.855469 51.441406 19.492188 51.671875 19.308594 C 51.730469 19.261719 51.789062 19.226562 51.851562 19.1875 C 51.898438 19.164062 51.9375 19.140625 51.972656 19.082031 L 48.191406 19.082031 L 48.191406 19.574219 Z M 48.179688 19.574219" fill="#e2c675"></path><path fill-rule="nonzero" fill-opacity="1" d="M 54.65625 19.453125 C 54.933594 19.371094 55.257812 19.308594 55.632812 19.308594 C 55.777344 19.308594 55.921875 19.320312 56.070312 19.332031 C 56.960938 19.441406 58.085938 20.011719 59.066406 21.050781 C 59.34375 20.613281 59.695312 20.289062 60.128906 20.070312 C 60.601562 19.839844 61.386719 19.671875 62.460938 19.574219 L 62.460938 19.082031 L 55.015625 19.082031 C 54.894531 19.214844 54.777344 19.332031 54.65625 19.453125 Z M 54.65625 19.453125" fill="#e2c675"></path><path fill-rule="nonzero" fill-opacity="1" d="M 62.617188 36.214844 C 62.015625 36.421875 61.554688 36.832031 61.46875 37.230469 C 61.410156 37.507812 61.53125 37.785156 61.820312 38.0625 C 62.207031 38.425781 63.113281 39.164062 64.5625 39.5 L 60.890625 29.496094 C 60.960938 29.847656 61.011719 30.089844 61.046875 30.28125 C 61.105469 30.609375 61.121094 30.691406 61.191406 30.8125 C 61.46875 31.285156 61.554688 31.972656 61.398438 32.421875 C 61.421875 32.457031 61.445312 32.492188 61.46875 32.53125 C 61.554688 32.636719 61.652344 32.769531 61.710938 32.941406 C 61.84375 33.304688 61.675781 33.773438 61.519531 34.101562 C 61.578125 34.609375 61.589844 34.921875 61.578125 35.117188 C 61.628906 35.117188 61.6875 35.101562 61.734375 35.101562 C 62.074219 35.101562 62.398438 35.1875 62.691406 35.367188 C 62.847656 35.464844 62.945312 35.636719 62.921875 35.816406 C 62.90625 35.996094 62.785156 36.15625 62.617188 36.214844 Z M 62.617188 36.214844" fill="#e2c675"></path><path fill-rule="nonzero" fill-opacity="1" d="M 68.078125 39.464844 L 73.15625 27.210938 C 73.84375 25.546875 74.386719 24.300781 74.785156 23.503906 C 75.183594 22.707031 75.558594 22.078125 75.921875 21.605469 C 76.453125 20.953125 77.007812 20.46875 77.601562 20.15625 C 78.183594 19.839844 78.871094 19.648438 79.667969 19.574219 L 79.667969 19.082031 L 70.039062 19.082031 L 70.039062 19.574219 C 70.582031 19.574219 71.027344 19.625 71.378906 19.734375 C 71.730469 19.828125 72.042969 20.011719 72.332031 20.253906 C 72.625 20.507812 72.851562 20.878906 73.023438 21.351562 C 73.191406 21.824219 73.277344 22.34375 73.277344 22.886719 C 73.277344 23.867188 72.839844 25.425781 71.984375 27.574219 L 67.101562 39.632812 L 66.90625 40.117188 L 66.398438 41.375 L 66.207031 41.847656 L 65.796875 42.847656 L 65.421875 41.820312 C 64.199219 41.738281 62.230469 41.398438 60.152344 40.261719 L 63.402344 48.613281 L 64.308594 48.613281 L 67.136719 41.785156 L 67.34375 41.277344 L 67.875 39.996094 Z M 68.078125 39.464844" fill="#e2c675"></path><path fill-rule="nonzero" fill-opacity="1" d="M 57.109375 25.980469 C 57.132812 25.894531 57.167969 25.824219 57.230469 25.75 C 57.324219 25.652344 57.445312 25.605469 57.566406 25.605469 C 57.652344 25.605469 57.734375 25.628906 57.808594 25.679688 C 57.84375 25.703125 58.097656 25.859375 58.449219 26.113281 C 58.269531 25.761719 58.183594 25.292969 58.195312 24.734375 C 58.195312 24.601562 58.207031 24.457031 58.21875 24.3125 C 58.292969 22.800781 58.363281 21.242188 56.042969 20.710938 C 55.839844 20.664062 55.632812 20.640625 55.453125 20.640625 C 54.8125 20.640625 54.351562 20.929688 54.109375 21.472656 C 53.820312 22.160156 53.90625 23.285156 54.617188 24.445312 C 54.703125 23.828125 54.933594 23.152344 55.476562 22.679688 C 55.476562 22.679688 55.476562 22.679688 55.488281 22.667969 C 55.5 22.65625 55.5 22.65625 55.511719 22.644531 C 55.535156 22.632812 55.5625 22.609375 55.585938 22.585938 C 55.609375 22.558594 55.644531 22.546875 55.667969 22.523438 C 55.898438 22.367188 56.296875 22.136719 56.734375 22.078125 C 56.660156 22.488281 56.601562 23.09375 56.589844 23.480469 C 56.5625 24.53125 56.757812 25.207031 57.109375 25.980469 Z M 57.109375 25.980469" fill="#e2c675"></path><path fill-rule="nonzero" fill-opacity="1" d="M 76.042969 45.90625 C 76.019531 45.046875 75.34375 44.167969 74.472656 44.117188 C 74.375 44.117188 74.289062 44.117188 74.195312 44.128906 C 74.304688 44.128906 74.398438 44.140625 74.496094 44.152344 C 75.257812 44.3125 75.789062 45.144531 75.742188 45.90625 C 75.742188 45.953125 75.730469 45.992188 75.730469 46.039062 C 75.703125 46.148438 75.679688 46.257812 75.644531 46.367188 C 75.609375 46.460938 75.570312 46.558594 75.511719 46.644531 C 75.460938 46.726562 75.402344 46.8125 75.34375 46.886719 C 74.835938 47.511719 73.953125 47.863281 73.167969 47.828125 C 72.40625 47.804688 71.667969 47.5 71.078125 47.042969 C 68.128906 44.636719 69.941406 40.359375 73.128906 39.222656 C 74.449219 38.742188 75.742188 38.621094 77.007812 38.753906 C 77.082031 38.269531 77.203125 37.808594 77.382812 37.375 C 76.453125 37.265625 75.511719 37.277344 74.53125 37.449219 C 73.277344 37.652344 72.042969 38.148438 71.015625 38.933594 C 70.484375 39.332031 70.023438 39.816406 69.636719 40.359375 C 69.601562 40.40625 69.566406 40.457031 69.542969 40.503906 C 68.417969 42.171875 68.105469 44.515625 69.203125 46.269531 C 70.050781 47.609375 71.570312 48.578125 73.179688 48.492188 C 74.109375 48.457031 75.101562 47.984375 75.644531 47.210938 C 75.703125 47.125 75.753906 47.042969 75.800781 46.957031 C 75.863281 46.859375 75.910156 46.75 75.945312 46.644531 C 75.984375 46.546875 76.007812 46.4375 76.03125 46.328125 C 76.03125 46.183594 76.042969 46.050781 76.042969 45.90625 Z M 76.042969 45.90625" fill="#c6b259"></path><path fill-rule="nonzero" fill-opacity="1" d="M 100.296875 41.484375 C 99.667969 41.507812 99.0625 41.664062 98.480469 41.859375 C 99.085938 41.738281 99.691406 41.640625 100.28125 41.699219 C 101.394531 41.75 102.578125 42.558594 102.421875 43.753906 C 102.277344 44.832031 101.320312 45.6875 100.257812 45.859375 C 99.121094 46.0625 97.960938 45.796875 96.839844 45.53125 C 95.28125 45.15625 93.734375 44.660156 92.234375 44.082031 C 92.152344 44.046875 92.054688 44.007812 91.96875 43.972656 C 91.558594 43.804688 91.148438 43.632812 90.738281 43.453125 C 90.652344 43.417969 90.554688 43.378906 90.472656 43.332031 C 89.792969 43.019531 89.117188 42.691406 88.453125 42.339844 C 87.898438 42.039062 87.351562 41.726562 86.796875 41.410156 C 86.710938 41.363281 86.617188 41.300781 86.53125 41.253906 C 86.433594 41.195312 86.324219 41.132812 86.230469 41.085938 C 86.144531 41.035156 86.046875 40.976562 85.964844 40.925781 C 83.800781 39.671875 81.566406 38.390625 79.207031 37.75 C 79.113281 37.929688 79.027344 38.125 78.953125 38.316406 C 78.859375 38.570312 78.785156 38.835938 78.738281 39.101562 C 81.046875 39.730469 83.257812 41.023438 85.394531 42.246094 C 85.480469 42.292969 85.566406 42.339844 85.648438 42.390625 C 85.78125 42.460938 85.914062 42.535156 86.046875 42.621094 C 86.132812 42.667969 86.21875 42.714844 86.300781 42.765625 C 86.808594 43.054688 87.316406 43.320312 87.824219 43.574219 C 88.511719 43.914062 89.214844 44.238281 89.925781 44.539062 C 90.011719 44.578125 90.109375 44.613281 90.191406 44.648438 C 90.605469 44.820312 91.015625 44.976562 91.425781 45.132812 C 91.523438 45.167969 91.605469 45.207031 91.703125 45.230469 C 93.902344 46.015625 96.175781 46.582031 98.496094 46.824219 C 99.460938 46.886719 100.511719 46.789062 101.394531 46.292969 C 102.289062 45.785156 102.929688 44.84375 102.988281 43.804688 C 103.0625 42.304688 101.625 41.410156 100.296875 41.484375 Z M 100.296875 41.484375" fill="#c6b259"></path><path fill-rule="nonzero" fill-opacity="1" d="M 75.292969 46.390625 C 75.34375 46.304688 75.367188 46.207031 75.402344 46.125 C 74.957031 45.628906 74.570312 45.058594 74.289062 44.417969 C 74.253906 44.347656 74.21875 44.261719 74.195312 44.191406 C 74.21875 44.261719 74.230469 44.347656 74.253906 44.417969 C 74.460938 45.132812 74.835938 45.796875 75.292969 46.390625 Z M 75.292969 46.390625" fill="#e2c675"></path><path fill-rule="nonzero" fill-opacity="1" d="M 86.289062 40.769531 C 86.375 40.820312 86.472656 40.878906 86.554688 40.925781 C 86.566406 40.648438 86.542969 40.371094 86.484375 40.09375 C 86.339844 39.464844 85.976562 38.8125 85.347656 38.582031 C 85.636719 38.726562 85.855469 38.96875 86 39.246094 C 86.242188 39.71875 86.324219 40.25 86.265625 40.769531 C 86.277344 40.757812 86.289062 40.757812 86.289062 40.769531 Z M 86.289062 40.769531" fill="#e2c675"></path><path fill-rule="nonzero" fill-opacity="1" d="M 87.125 47.730469 C 85.515625 48.636719 83.632812 48.867188 81.808594 48.769531 C 79.800781 48.683594 77.710938 48.082031 76.164062 46.835938 C 76.117188 46.945312 76.066406 47.066406 76.007812 47.164062 C 76.101562 47.246094 76.1875 47.34375 76.285156 47.417969 C 78.316406 49.15625 81.105469 49.710938 83.714844 49.675781 C 86.433594 49.640625 89.164062 48.3125 90.773438 46.085938 C 90.953125 45.859375 91.109375 45.605469 91.269531 45.351562 C 90.859375 45.207031 90.445312 45.035156 90.035156 44.867188 C 89.335938 46.074219 88.320312 47.089844 87.125 47.730469 Z M 87.125 47.730469" fill="#e2c675"></path><path fill-rule="nonzero" fill-opacity="1" d="M 77.78125 37.132812 C 77.734375 37.21875 77.699219 37.316406 77.664062 37.410156 C 77.480469 37.847656 77.347656 38.304688 77.289062 38.789062 C 77.277344 38.886719 77.261719 38.980469 77.25 39.078125 C 77.226562 39.355469 77.214844 39.632812 77.238281 39.914062 C 77.324219 42.148438 78.835938 44.082031 81.09375 44.445312 C 82.449219 44.660156 83.910156 44.480469 85.046875 43.683594 C 85.371094 43.453125 85.660156 43.175781 85.890625 42.847656 C 85.746094 42.765625 85.613281 42.691406 85.46875 42.605469 C 85.457031 42.621094 85.445312 42.632812 85.433594 42.65625 C 84.394531 43.765625 82.675781 43.9375 81.261719 43.621094 C 79.195312 43.164062 78.183594 41.242188 78.410156 39.308594 C 78.421875 39.210938 78.433594 39.113281 78.449219 39.019531 C 78.496094 38.742188 78.570312 38.472656 78.675781 38.207031 C 78.75 38.015625 78.820312 37.835938 78.917969 37.664062 C 78.96875 37.582031 79.015625 37.484375 79.0625 37.398438 C 79.789062 36.167969 81.046875 35.261719 82.363281 34.742188 C 85.238281 33.617188 88.257812 34.714844 90.058594 37.15625 C 91.351562 38.921875 91.484375 41.15625 90.832031 43.175781 C 91.246094 43.355469 91.65625 43.539062 92.078125 43.707031 C 92.949219 41.253906 92.816406 38.425781 91.21875 36.300781 C 89.070312 33.316406 85.324219 32.046875 81.867188 33.460938 C 80.113281 34.148438 78.570312 35.464844 77.78125 37.132812 Z M 77.78125 37.132812" fill="#e2c675"></path><path fill-rule="nonzero" fill-opacity="1" d="M 53.035156 44.152344 C 53.132812 44.128906 53.230469 44.117188 53.335938 44.128906 C 53.242188 44.117188 53.144531 44.117188 53.058594 44.117188 C 52.203125 44.167969 51.511719 45.058594 51.488281 45.90625 C 51.488281 46.050781 51.5 46.183594 51.523438 46.316406 C 51.621094 46.230469 51.71875 46.136719 51.816406 46.039062 C 51.804688 46.003906 51.804688 45.953125 51.804688 45.90625 C 51.742188 45.144531 52.273438 44.3125 53.035156 44.152344 Z M 53.035156 44.152344" fill="#c6b259"></path><path fill-rule="nonzero" fill-opacity="1" d="M 30.691406 45.519531 C 29.570312 45.785156 28.410156 46.050781 27.273438 45.84375 C 26.210938 45.675781 25.253906 44.832031 25.109375 43.742188 C 24.941406 42.558594 26.136719 41.738281 27.25 41.6875 C 27.839844 41.640625 28.457031 41.726562 29.050781 41.847656 C 27.890625 41.433594 26.5 41.207031 25.410156 42.003906 C 24.167969 42.875 24.398438 44.625 25.339844 45.628906 C 26.246094 46.65625 27.757812 46.898438 29.050781 46.800781 C 31.371094 46.546875 33.640625 45.992188 35.839844 45.207031 C 35.636719 44.84375 35.453125 44.457031 35.296875 44.058594 C 33.796875 44.648438 32.25 45.144531 30.691406 45.519531 Z M 30.691406 45.519531" fill="#c6b259"></path><path fill-rule="nonzero" fill-opacity="1" d="M 53.011719 37.433594 C 52.03125 37.277344 51.089844 37.265625 50.160156 37.363281 C 50.0625 37.375 49.953125 37.386719 49.859375 37.398438 C 49.433594 37.460938 49.023438 37.542969 48.613281 37.640625 C 48.515625 37.664062 48.417969 37.6875 48.324219 37.714844 C 45.953125 38.355469 43.730469 39.632812 41.566406 40.890625 C 41.640625 41.363281 41.832031 41.820312 42.136719 42.207031 C 44.273438 40.988281 46.5 39.695312 48.792969 39.066406 C 48.890625 39.042969 48.988281 39.019531 49.070312 38.996094 C 49.457031 38.898438 49.84375 38.824219 50.230469 38.777344 C 50.328125 38.765625 50.425781 38.753906 50.523438 38.742188 C 51.789062 38.609375 53.082031 38.726562 54.402344 39.210938 C 57.589844 40.347656 59.402344 44.625 56.457031 47.03125 C 55.863281 47.5 55.113281 47.804688 54.363281 47.816406 C 53.578125 47.851562 52.695312 47.5 52.191406 46.871094 C 52.09375 46.980469 51.996094 47.089844 51.886719 47.1875 C 52.429688 47.949219 53.421875 48.429688 54.351562 48.46875 C 55.960938 48.566406 57.480469 47.585938 58.328125 46.246094 C 59.429688 44.480469 59.101562 42.148438 57.988281 40.480469 C 56.902344 38.789062 54.96875 37.761719 53.011719 37.433594 Z M 53.011719 37.433594" fill="#c6b259"></path><path fill-rule="nonzero" fill-opacity="1" d="M 39.066406 42.328125 C 38.402344 42.679688 37.738281 43.007812 37.046875 43.320312 C 37.195312 43.730469 37.386719 44.128906 37.59375 44.515625 C 38.304688 44.214844 39.007812 43.898438 39.695312 43.550781 C 40.203125 43.296875 40.710938 43.019531 41.21875 42.738281 C 40.976562 42.328125 40.808594 41.871094 40.722656 41.398438 C 40.179688 41.714844 39.621094 42.039062 39.066406 42.328125 Z M 39.066406 42.328125" fill="#c6b259"></path><path fill-rule="nonzero" fill-opacity="1" d="M 52.226562 46.402344 C 52.695312 45.808594 53.058594 45.144531 53.277344 44.417969 C 53.300781 44.347656 53.324219 44.261719 53.335938 44.191406 C 53.300781 44.273438 53.277344 44.347656 53.242188 44.417969 C 52.964844 45.074219 52.578125 45.628906 52.128906 46.125 C 52.058594 46.207031 51.984375 46.28125 51.898438 46.351562 C 51.804688 46.449219 51.707031 46.535156 51.609375 46.632812 C 51.535156 46.703125 51.453125 46.765625 51.378906 46.824219 C 49.832031 48.070312 47.742188 48.671875 45.738281 48.757812 C 43.914062 48.867188 42.027344 48.625 40.421875 47.71875 C 39.222656 47.078125 38.207031 46.0625 37.496094 44.867188 C 37.449219 44.78125 37.398438 44.699219 37.351562 44.613281 C 37.132812 44.226562 36.953125 43.828125 36.808594 43.429688 C 36.769531 43.34375 36.734375 43.246094 36.710938 43.152344 C 36.058594 41.132812 36.191406 38.898438 37.484375 37.132812 C 39.273438 34.679688 42.292969 33.582031 45.179688 34.714844 C 46.5 35.234375 47.753906 36.140625 48.480469 37.375 C 48.902344 37.265625 49.324219 37.179688 49.761719 37.121094 C 48.976562 35.453125 47.441406 34.136719 45.6875 33.4375 C 42.234375 32.023438 38.488281 33.304688 36.335938 36.273438 C 34.742188 38.402344 34.597656 41.230469 35.476562 43.683594 C 35.515625 43.78125 35.539062 43.863281 35.574219 43.949219 C 35.730469 44.347656 35.914062 44.734375 36.117188 45.097656 C 36.167969 45.179688 36.214844 45.265625 36.261719 45.351562 C 36.421875 45.605469 36.578125 45.84375 36.757812 46.085938 C 38.378906 48.3125 41.109375 49.628906 43.816406 49.675781 C 46.4375 49.699219 49.21875 49.15625 51.246094 47.417969 C 51.34375 47.332031 51.441406 47.246094 51.523438 47.164062 C 51.597656 47.089844 51.671875 47.019531 51.742188 46.945312 C 51.839844 46.847656 51.9375 46.738281 52.03125 46.632812 C 52.105469 46.558594 52.164062 46.472656 52.226562 46.402344 Z M 52.226562 46.402344" fill="#e2c675"></path><path fill-rule="nonzero" fill-opacity="1" d="M 42.171875 38.570312 C 41.542969 38.800781 41.167969 39.453125 41.035156 40.082031 C 40.976562 40.359375 40.953125 40.636719 40.964844 40.914062 C 40.964844 41.023438 40.976562 41.132812 40.988281 41.230469 C 41.058594 41.699219 41.21875 42.171875 41.472656 42.582031 C 41.519531 42.667969 41.566406 42.753906 41.628906 42.824219 C 41.859375 43.152344 42.148438 43.429688 42.472656 43.660156 C 43.621094 44.457031 45.085938 44.636719 46.425781 44.417969 C 48.671875 44.058594 50.195312 42.136719 50.28125 39.886719 C 50.292969 39.609375 50.292969 39.332031 50.269531 39.054688 C 49.882812 39.101562 49.496094 39.1875 49.109375 39.273438 C 49.335938 41.195312 48.324219 43.113281 46.257812 43.585938 C 44.84375 43.898438 43.125 43.730469 42.085938 42.621094 C 42.074219 42.605469 42.0625 42.59375 42.050781 42.570312 C 41.980469 42.5 41.917969 42.425781 41.871094 42.339844 C 41.59375 41.953125 41.386719 41.507812 41.289062 41.035156 C 41.265625 40.941406 41.253906 40.832031 41.242188 40.734375 C 41.195312 40.214844 41.265625 39.683594 41.507812 39.210938 C 41.664062 38.96875 41.894531 38.726562 42.171875 38.570312 Z M 42.171875 38.570312" fill="#e2c675"></path><path fill-rule="nonzero" fill-opacity="1" d="M 12.84375 111.253906 L 15.320312 111.253906 C 15.515625 111.253906 15.683594 111.277344 15.855469 111.316406 C 16.023438 111.351562 16.167969 111.425781 16.289062 111.507812 C 16.410156 111.605469 16.519531 111.714844 16.589844 111.871094 C 16.664062 112.015625 16.699219 112.199219 16.699219 112.425781 C 16.699219 112.667969 16.664062 112.863281 16.578125 113.007812 C 16.496094 113.164062 16.386719 113.285156 16.242188 113.371094 C 16.410156 113.453125 16.554688 113.574219 16.664062 113.742188 C 16.773438 113.902344 16.820312 114.117188 16.820312 114.382812 C 16.820312 114.601562 16.785156 114.785156 16.710938 114.941406 C 16.640625 115.085938 16.542969 115.207031 16.410156 115.304688 C 16.289062 115.398438 16.132812 115.460938 15.976562 115.496094 C 15.804688 115.53125 15.625 115.558594 15.441406 115.558594 L 12.84375 115.558594 Z M 15.320312 113.03125 C 15.46875 113.03125 15.589844 112.996094 15.683594 112.921875 C 15.78125 112.851562 15.839844 112.71875 15.839844 112.511719 C 15.839844 112.316406 15.792969 112.183594 15.683594 112.113281 C 15.589844 112.039062 15.457031 111.992188 15.320312 111.992188 L 13.703125 111.992188 L 13.703125 113.03125 Z M 15.441406 114.808594 C 15.589844 114.808594 15.707031 114.769531 15.804688 114.699219 C 15.902344 114.625 15.960938 114.492188 15.960938 114.289062 C 15.960938 114.09375 15.914062 113.960938 15.804688 113.890625 C 15.707031 113.816406 15.574219 113.769531 15.441406 113.769531 L 13.703125 113.769531 L 13.703125 114.808594 Z M 15.441406 114.808594" fill="#c6b259"></path><path fill-rule="nonzero" fill-opacity="1" d="M 21.679688 113.730469 L 20.023438 111.265625 L 21.0625 111.265625 L 22.101562 112.933594 L 23.140625 111.265625 L 24.179688 111.265625 L 22.523438 113.730469 L 22.523438 115.542969 L 21.667969 115.542969 L 21.667969 113.730469 Z M 21.679688 113.730469" fill="#c6b259"></path><path fill-rule="nonzero" fill-opacity="1" d="M 33.664062 111.253906 L 34.765625 111.253906 L 36.480469 114.371094 L 36.480469 111.253906 L 37.339844 111.253906 L 37.339844 115.53125 L 36.238281 115.53125 L 34.523438 112.414062 L 34.523438 115.53125 L 33.664062 115.53125 Z M 33.664062 111.253906" fill="#c6b259"></path><path fill-rule="nonzero" fill-opacity="1" d="M 42.0625 115.421875 C 41.847656 115.351562 41.640625 115.230469 41.484375 115.0625 C 41.328125 114.890625 41.179688 114.675781 41.085938 114.398438 C 40.988281 114.117188 40.941406 113.792969 40.941406 113.394531 C 40.941406 112.996094 40.988281 112.667969 41.085938 112.390625 C 41.179688 112.113281 41.3125 111.894531 41.484375 111.726562 C 41.652344 111.558594 41.847656 111.4375 42.0625 111.363281 C 42.28125 111.292969 42.523438 111.253906 42.777344 111.253906 L 44.371094 111.253906 L 44.371094 111.992188 L 42.898438 111.992188 C 42.765625 111.992188 42.632812 112.003906 42.523438 112.039062 C 42.402344 112.078125 42.292969 112.136719 42.195312 112.210938 C 42.101562 112.292969 42.015625 112.390625 41.953125 112.523438 C 41.882812 112.65625 41.847656 112.824219 41.820312 113.019531 L 44.371094 113.019531 L 44.371094 113.757812 L 41.808594 113.757812 C 41.832031 113.960938 41.882812 114.117188 41.941406 114.25 C 42.015625 114.382812 42.085938 114.492188 42.183594 114.566406 C 42.28125 114.652344 42.390625 114.699219 42.511719 114.734375 C 42.632812 114.769531 42.753906 114.785156 42.886719 114.785156 L 44.347656 114.785156 L 44.347656 115.519531 L 42.777344 115.519531 C 42.523438 115.542969 42.28125 115.507812 42.0625 115.421875 Z M 42.0625 115.421875" fill="#c6b259"></path><path fill-rule="nonzero" fill-opacity="1" d="M 48.152344 111.253906 L 50.691406 111.253906 C 50.882812 111.253906 51.054688 111.277344 51.222656 111.328125 C 51.390625 111.375 51.535156 111.449219 51.65625 111.542969 C 51.777344 111.640625 51.886719 111.773438 51.960938 111.945312 C 52.03125 112.113281 52.070312 112.304688 52.070312 112.546875 C 52.070312 112.753906 52.042969 112.933594 51.996094 113.089844 C 51.949219 113.25 51.875 113.371094 51.789062 113.476562 C 51.707031 113.585938 51.597656 113.671875 51.476562 113.730469 C 51.355469 113.792969 51.222656 113.839844 51.089844 113.863281 L 52.058594 115.542969 L 51.066406 115.542969 L 50.160156 113.890625 L 49 113.890625 L 49 115.542969 L 48.140625 115.542969 L 48.140625 111.253906 Z M 50.691406 113.152344 C 50.835938 113.152344 50.957031 113.105469 51.054688 113.019531 C 51.152344 112.933594 51.210938 112.777344 51.210938 112.535156 C 51.210938 112.332031 51.164062 112.183594 51.054688 112.113281 C 50.957031 112.027344 50.824219 111.992188 50.691406 111.992188 L 49.011719 111.992188 L 49.011719 113.152344 Z M 50.691406 113.152344" fill="#c6b259"></path><path fill-rule="nonzero" fill-opacity="1" d="M 55.28125 111.253906 L 56.238281 111.253906 L 57.652344 114.601562 L 59.066406 111.253906 L 60.019531 111.253906 L 58.109375 115.53125 L 57.191406 115.53125 Z M 55.28125 111.253906" fill="#c6b259"></path><path fill-rule="nonzero" fill-opacity="1" d="M 64.117188 111.253906 L 65.035156 111.253906 L 66.945312 115.53125 L 65.988281 115.53125 L 65.625 114.675781 L 63.511719 114.675781 L 63.148438 115.53125 L 62.195312 115.53125 Z M 65.324219 113.949219 L 64.574219 112.199219 L 63.839844 113.949219 Z M 65.324219 113.949219" fill="#c6b259"></path><path fill-rule="nonzero" fill-opacity="1" d="M 70.195312 111.253906 L 71.050781 111.253906 L 71.050781 113.828125 C 71.050781 114.023438 71.078125 114.167969 71.136719 114.300781 C 71.199219 114.421875 71.269531 114.53125 71.367188 114.601562 C 71.464844 114.675781 71.585938 114.734375 71.71875 114.757812 C 71.851562 114.796875 71.996094 114.808594 72.140625 114.808594 L 73.238281 114.808594 L 73.238281 115.542969 L 72.140625 115.542969 C 71.875 115.542969 71.621094 115.519531 71.378906 115.460938 C 71.136719 115.398438 70.929688 115.304688 70.761719 115.171875 C 70.582031 115.035156 70.449219 114.855469 70.339844 114.636719 C 70.230469 114.421875 70.183594 114.15625 70.183594 113.828125 L 70.183594 111.253906 Z M 70.195312 111.253906" fill="#c6b259"></path><path fill-rule="nonzero" fill-opacity="1" d="M 83.847656 115.421875 C 83.632812 115.351562 83.425781 115.230469 83.269531 115.0625 C 83.101562 114.890625 82.96875 114.675781 82.871094 114.398438 C 82.773438 114.117188 82.726562 113.792969 82.726562 113.394531 C 82.726562 112.996094 82.773438 112.667969 82.871094 112.390625 C 82.96875 112.113281 83.101562 111.894531 83.269531 111.726562 C 83.4375 111.558594 83.632812 111.4375 83.847656 111.363281 C 84.066406 111.292969 84.308594 111.253906 84.5625 111.253906 L 86.640625 111.253906 L 86.640625 111.992188 L 84.683594 111.992188 C 84.539062 111.992188 84.394531 112.015625 84.261719 112.066406 C 84.125 112.113281 84.007812 112.183594 83.910156 112.292969 C 83.8125 112.402344 83.726562 112.546875 83.679688 112.730469 C 83.621094 112.910156 83.59375 113.140625 83.59375 113.40625 C 83.59375 113.683594 83.621094 113.902344 83.679688 114.082031 C 83.738281 114.265625 83.8125 114.410156 83.910156 114.515625 C 84.007812 114.625 84.125 114.699219 84.261719 114.746094 C 84.394531 114.796875 84.539062 114.820312 84.683594 114.820312 L 85.78125 114.820312 L 85.78125 113.78125 L 84.925781 113.78125 L 84.925781 113.042969 L 86.640625 113.042969 L 86.640625 115.542969 L 84.5625 115.542969 C 84.308594 115.542969 84.066406 115.507812 83.847656 115.421875 Z M 83.847656 115.421875" fill="#c6b259"></path><path fill-rule="nonzero" fill-opacity="1" d="M 90.433594 111.253906 L 92.972656 111.253906 C 93.164062 111.253906 93.335938 111.277344 93.503906 111.328125 C 93.671875 111.375 93.816406 111.449219 93.9375 111.542969 C 94.058594 111.640625 94.167969 111.773438 94.242188 111.945312 C 94.3125 112.113281 94.351562 112.304688 94.351562 112.546875 C 94.351562 112.753906 94.324219 112.933594 94.277344 113.089844 C 94.230469 113.25 94.15625 113.371094 94.070312 113.476562 C 93.988281 113.585938 93.878906 113.671875 93.757812 113.730469 C 93.636719 113.792969 93.503906 113.839844 93.371094 113.863281 L 94.335938 115.542969 L 93.347656 115.542969 L 92.441406 113.890625 L 91.28125 113.890625 L 91.28125 115.542969 L 90.421875 115.542969 L 90.421875 111.253906 Z M 92.972656 113.152344 C 93.117188 113.152344 93.238281 113.105469 93.335938 113.019531 C 93.429688 112.933594 93.492188 112.777344 93.492188 112.535156 C 93.492188 112.332031 93.445312 112.183594 93.335938 112.113281 C 93.238281 112.027344 93.105469 111.992188 92.972656 111.992188 L 91.292969 111.992188 L 91.292969 113.152344 Z M 92.972656 113.152344" fill="#c6b259"></path><path fill-rule="nonzero" fill-opacity="1" d="M 97.855469 113.40625 C 97.855469 112.996094 97.902344 112.644531 98.011719 112.355469 C 98.121094 112.066406 98.265625 111.835938 98.457031 111.664062 C 98.652344 111.484375 98.867188 111.363281 99.121094 111.292969 C 99.375 111.21875 99.640625 111.171875 99.933594 111.171875 C 100.210938 111.171875 100.476562 111.207031 100.730469 111.292969 C 100.984375 111.363281 101.203125 111.496094 101.394531 111.664062 C 101.585938 111.847656 101.734375 112.078125 101.839844 112.355469 C 101.949219 112.644531 102.011719 112.984375 102.011719 113.40625 C 102.011719 113.828125 101.949219 114.167969 101.839844 114.457031 C 101.734375 114.746094 101.574219 114.976562 101.394531 115.144531 C 101.203125 115.328125 100.984375 115.449219 100.730469 115.519531 C 100.476562 115.59375 100.210938 115.640625 99.933594 115.640625 C 99.640625 115.640625 99.375 115.605469 99.121094 115.519531 C 98.867188 115.4375 98.652344 115.316406 98.457031 115.144531 C 98.265625 114.976562 98.121094 114.734375 98.011719 114.457031 C 97.914062 114.15625 97.855469 113.816406 97.855469 113.40625 Z M 99.945312 114.902344 C 100.113281 114.902344 100.269531 114.878906 100.414062 114.832031 C 100.5625 114.785156 100.695312 114.699219 100.800781 114.589844 C 100.910156 114.480469 100.996094 114.324219 101.066406 114.128906 C 101.128906 113.9375 101.164062 113.695312 101.164062 113.40625 C 101.164062 113.117188 101.128906 112.875 101.066406 112.679688 C 101.007812 112.488281 100.910156 112.332031 100.800781 112.222656 C 100.695312 112.113281 100.5625 112.027344 100.414062 111.980469 C 100.269531 111.929688 100.113281 111.90625 99.945312 111.90625 C 99.773438 111.90625 99.617188 111.929688 99.460938 111.980469 C 99.316406 112.027344 99.183594 112.113281 99.074219 112.222656 C 98.964844 112.332031 98.882812 112.488281 98.808594 112.679688 C 98.75 112.875 98.710938 113.117188 98.710938 113.40625 C 98.710938 113.695312 98.75 113.9375 98.808594 114.128906 C 98.867188 114.324219 98.953125 114.480469 99.074219 114.589844 C 99.183594 114.699219 99.316406 114.785156 99.460938 114.832031 C 99.605469 114.878906 99.761719 114.902344 99.945312 114.902344 Z M 99.945312 114.902344" fill="#c6b259"></path><path fill-rule="nonzero" fill-opacity="1" d="M 105.5625 111.253906 L 106.421875 111.253906 L 106.421875 113.757812 C 106.421875 113.972656 106.445312 114.15625 106.507812 114.300781 C 106.566406 114.445312 106.640625 114.566406 106.734375 114.652344 C 106.832031 114.734375 106.953125 114.796875 107.085938 114.832031 C 107.21875 114.867188 107.363281 114.890625 107.519531 114.890625 C 107.664062 114.890625 107.8125 114.867188 107.945312 114.832031 C 108.078125 114.796875 108.199219 114.734375 108.292969 114.652344 C 108.390625 114.566406 108.476562 114.445312 108.535156 114.300781 C 108.597656 114.15625 108.621094 113.972656 108.621094 113.757812 L 108.621094 111.253906 L 109.480469 111.253906 L 109.480469 113.757812 C 109.480469 114.105469 109.429688 114.410156 109.320312 114.652344 C 109.210938 114.890625 109.078125 115.085938 108.898438 115.230469 C 108.71875 115.375 108.511719 115.472656 108.28125 115.542969 C 108.039062 115.605469 107.800781 115.640625 107.519531 115.640625 C 107.242188 115.640625 107 115.605469 106.757812 115.542969 C 106.519531 115.484375 106.3125 115.375 106.132812 115.230469 C 105.949219 115.085938 105.816406 114.890625 105.707031 114.652344 C 105.613281 114.410156 105.550781 114.117188 105.550781 113.757812 L 105.550781 111.253906 Z M 105.5625 111.253906" fill="#c6b259"></path><path fill-rule="nonzero" fill-opacity="1" d="M 113.210938 111.253906 L 115.691406 111.253906 C 115.882812 111.253906 116.078125 111.277344 116.246094 111.328125 C 116.425781 111.375 116.570312 111.460938 116.703125 111.570312 C 116.835938 111.679688 116.933594 111.824219 117.019531 112.003906 C 117.089844 112.183594 117.128906 112.402344 117.128906 112.667969 C 117.128906 112.945312 117.089844 113.1875 117.019531 113.371094 C 116.945312 113.5625 116.835938 113.707031 116.703125 113.816406 C 116.570312 113.925781 116.425781 114.011719 116.246094 114.058594 C 116.0625 114.105469 115.882812 114.128906 115.691406 114.128906 L 114.070312 114.128906 L 114.070312 115.53125 L 113.210938 115.53125 Z M 115.691406 113.40625 C 115.761719 113.40625 115.847656 113.394531 115.90625 113.371094 C 115.980469 113.34375 116.039062 113.308594 116.089844 113.25 C 116.136719 113.1875 116.183594 113.117188 116.210938 113.03125 C 116.246094 112.933594 116.257812 112.8125 116.257812 112.679688 C 116.257812 112.4375 116.195312 112.257812 116.089844 112.160156 C 115.980469 112.066406 115.835938 112.003906 115.675781 112.003906 L 114.070312 112.003906 L 114.070312 113.40625 Z M 115.691406 113.40625" fill="#c6b259"></path></svg>