<?xml version="1.0" encoding="UTF-8"?>
<svg id="Layer_1" data-name="Layer 1" xmlns="http://www.w3.org/2000/svg" version="1.1" xmlns:xlink="http://www.w3.org/1999/xlink" viewBox="0 0 175 175">
  <defs>
    <style>
      .cls-1 {
        fill: url(#linear-gradient);
      }

      .cls-1, .cls-2, .cls-3, .cls-4, .cls-5, .cls-6, .cls-7, .cls-8, .cls-9, .cls-10 {
        stroke-width: 0px;
      }

      .cls-2 {
        fill: url(#linear-gradient-6);
      }

      .cls-3 {
        fill: url(#linear-gradient-5);
      }

      .cls-4 {
        fill: #c6b259;
      }

      .cls-5 {
        fill: url(#linear-gradient-2);
      }

      .cls-6 {
        fill: url(#linear-gradient-7);
      }

      .cls-7 {
        fill: url(#linear-gradient-3);
      }

      .cls-8 {
        fill: #e2c675;
      }

      .cls-9 {
        fill: url(#linear-gradient-8);
      }

      .cls-10 {
        fill: url(#linear-gradient-4);
      }
    </style>
    <linearGradient id="linear-gradient" x1="30.6" y1="67.6" x2="30.6" y2="158.6" gradientUnits="userSpaceOnUse">
      <stop offset="0" stop-color="#aaa"/>
      <stop offset="1" stop-color="#383838"/>
    </linearGradient>
    <linearGradient id="linear-gradient-2" x1="55.9" y1="67.6" x2="55.9" y2="158.6" xlink:href="#linear-gradient"/>
    <linearGradient id="linear-gradient-3" x1="80.2" y1="67.6" x2="80.2" y2="158.6" xlink:href="#linear-gradient"/>
    <linearGradient id="linear-gradient-4" x1="109.4" y1="67.6" x2="109.4" y2="158.6" xlink:href="#linear-gradient"/>
    <linearGradient id="linear-gradient-5" x1="140" y1="67.6" x2="140" y2="158.6" xlink:href="#linear-gradient"/>
    <linearGradient id="linear-gradient-6" x1="70.8" y1="67.6" x2="70.8" y2="158.6" xlink:href="#linear-gradient"/>
    <linearGradient id="linear-gradient-7" x1="85.3" y1="67.6" x2="85.3" y2="158.6" xlink:href="#linear-gradient"/>
    <linearGradient id="linear-gradient-8" x1="99.7" y1="67.6" x2="99.7" y2="158.6" xlink:href="#linear-gradient"/>
  </defs>
  <path class="cls-4" d="M115.8,82.8h39.6v1.4h-39.6v-1.4Z"/>
  <path class="cls-4" d="M15,82.8h39.7v1.4H15v-1.4Z"/>
  <g>
    <path class="cls-1" d="M14.9,102.8h14.3v.5c-1.1,0-1.9.3-2.3.5-.5.2-.8.5-1.1,1-.3.4-.4.9-.4,1.5s0,.7.1,1c0,.3.3.9.6,1.9l6.4,17.4,6.2-15.3c.9-2.1,1.3-3.7,1.3-4.7s0-1.1-.3-1.5c-.2-.5-.4-.8-.7-1.1-.3-.2-.6-.4-1-.5-.4,0-.8-.1-1.3-.1v-.5h9.6v.5c-.8,0-1.5.3-2.1.6-.6.3-1.1.8-1.7,1.5-.4.5-.7,1.1-1.1,1.9-.4.8-.9,2-1.6,3.7l-8.9,21.4h-.9l-8.6-22.1c-1.1-2.9-2-4.7-2.7-5.5-.4-.5-1-.9-1.6-1.1-.6-.2-1.4-.3-2.3-.3v-.5Z"/>
    <path class="cls-5" d="M62.8,102.8v.5c-.8,0-1.5.2-2,.4-.5.2-1,.5-1.4.9-.6.6-.9,1.4-1,2.4,0,.8-.1,1.6-.1,2.6v15.9c0,1.2,0,2.1.2,2.8.1.7.3,1.2.6,1.7.4.6.9,1,1.4,1.3.6.3,1.4.4,2.4.5v.5h-13.8v-.5c.8,0,1.5-.2,2-.4.5-.2,1-.5,1.3-.9.5-.5.8-1,.9-1.8s.2-1.8.2-3.3v-15.9c0-1.5,0-2.6-.2-3.3-.2-.7-.5-1.3-.9-1.8-.4-.4-.8-.7-1.4-.9-.5-.2-1.2-.3-2-.4v-.5h13.8Z"/>
    <path class="cls-7" d="M67.1,132.3v-.5c1.5,0,2.6-.4,3.4-1.2.4-.5.8-1,.9-1.8.2-.7.2-1.8.2-3.3v-16c0-1.5,0-2.7-.3-3.4s-.5-1.3-1-1.8c-.4-.4-.9-.6-1.4-.8s-1.1-.3-1.9-.3v-.5h13.8v.5c-.8,0-1.4.1-1.9.3s-.9.4-1.3.8c-.5.5-.8,1.1-1,1.8s-.3,1.8-.3,3.4v12.5c0,1.9,0,3.3.1,4.3,0,.9.3,1.7.6,2.3.5,1,1.3,1.8,2.3,2.3,1,.5,2.3.7,4,.7s3.2-.2,4.3-.7c1.2-.5,2.1-1.2,2.9-2.1.5-.6.9-1.4,1.2-2.2.3-.8.6-1.9.9-3.3h.5s-.3,8.9-.3,8.9h-25.8Z"/>
    <path class="cls-10" d="M96.4,132.3v-.5c1.4,0,2.6-.4,3.4-1.2.5-.5.8-1,.9-1.8.2-.7.2-1.8.2-3.3v-16c0-1.5,0-2.7-.3-3.4s-.5-1.3-1-1.8c-.4-.4-.9-.6-1.4-.8s-1.1-.3-1.9-.3v-.5h13.8v.5c-.8,0-1.4.1-1.9.3s-1,.4-1.3.8c-.5.5-.8,1.1-1,1.8s-.3,1.8-.3,3.4v12.5c0,1.9,0,3.3.1,4.3,0,.9.3,1.7.6,2.3.5,1,1.3,1.8,2.3,2.3,1,.5,2.3.7,4,.7s3.2-.2,4.3-.7c1.2-.5,2.1-1.2,2.9-2.1.5-.6.9-1.4,1.2-2.2.3-.8.6-1.9.9-3.3h.5s-.3,8.9-.3,8.9h-25.8Z"/>
    <path class="cls-3" d="M155.8,132.3h-14.2v-.5c1.3-.1,2.2-.3,2.7-.6.9-.6,1.3-1.3,1.3-2.3s-.2-1.4-.6-2.4l-.4-.9-2.1-5.1h-9.5l-1.1,3-.6,1.3c-.6,1.6-1,2.8-1,3.7s.1,1,.4,1.5.6.8,1,1.1c.6.4,1.3.6,2.2.7v.5h-9.7v-.5c.8,0,1.4-.2,2-.6.6-.3,1.1-.9,1.7-1.6.5-.6.9-1.4,1.4-2.3.4-.9,1-2.3,1.7-4.2l7.9-20.4h1.2l9.4,22.8c.7,1.7,1.3,2.9,1.7,3.7.4.7.9,1.3,1.4,1.7.4.3.7.5,1.2.6.4.1,1.1.3,2,.4v.5h0ZM142.2,119.6l-4.5-11.2-4.3,11.2h8.8Z"/>
    <path class="cls-2" d="M69.8,80.1h-3.7v-1.8h9.5v1.8h-3.7v8.6h-2.1v-8.6Z"/>
    <path class="cls-6" d="M80.9,78.3h2.1v4.3h4.8v-4.3h2.1v10.4h-2.1v-4.3h-4.8v4.3h-2.1v-10.4Z"/>
    <path class="cls-9" d="M98.3,88.4c-.5-.2-1-.5-1.4-.9s-.7-.9-1-1.6c-.2-.7-.4-1.5-.4-2.4s.1-1.8.4-2.4c.2-.7.5-1.2,1-1.6.4-.4.9-.7,1.4-.9.5-.2,1.1-.3,1.7-.3h3.8v1.8h-3.6c-.3,0-.6,0-.9.1-.3,0-.5.2-.8.4s-.4.4-.6.8-.3.7-.3,1.2h6.2v1.8h-6.2c0,.5.2.9.3,1.2.2.3.4.6.6.8.2.2.5.3.8.4.3,0,.6.1.9.1h3.6v1.8h-3.8c-.6,0-1.2-.1-1.7-.3Z"/>
  </g>
  <path class="cls-4" d="M87.6,55.2h.2l.7-1.6c-.5,0-1,0-1.5,0-.2,0-.5,0-.7-.1-2.2-.4-3.6-1.5-4.3-2.2-1.5-1.4-.3-3,1.3-3.5-1.2-.7-2.3.2-2.4.3,0,0,.5-.8.6-1,0-.2,0-1.7,0-1.7,0,0,.5-.9.3-1.2-.1-.4-.6-.7-.4-1,.2-.4,0-1.2-.2-1.7-.3-.5-.2-.8-.7-2.8-.5-1.9-3.5-3.8-3.6-3.8,0,0,1,1.4,1.6,3.5.6,2.1.5,4.7.4,6.3,0,1.5.4,4.8.4,4.9,0,0-1-1.3-1-4.3,0-3.1.4-4.4-1-7.4-1.5-3-2.4-4-2.1-7.3-2,1-1.4,4-1.4,4-3.5-3.6-2.6-8.3,1.4-7.4,2.3.5,3.1,1.7,3.3,3.1,0,.4,0,.7,0,1.1,0,.6,0,1.3,0,1.8,0,2.1,1.1,2.3,1.4,2.2h0c.1,0,.4,0,.6-.1.5-.2,1-.9,0-3.3-.4-1-.9-1.9-1.4-2.6-.1-.2-.3-.4-.5-.6-1.3-1.4-2.7-2.1-3.8-2.3-1.7-.2-2.7.7-2.7.7l.2-1.4c0,0,.2-.2.3-.2.2-.2.4-.4.6-.6,1.2-1.6,1.5-3.7,1.2-6-.6,2-4,4.4-4.1,5.8,0,0,0,.1,0,.2,0,.3,0,.5-.1.6-.2.6-.4.6-.7.8-.2.1-.3.6-.2,1.4,0,.4.2.9.4,1.4.2.4.4.8.6,1.2,0,0,0-.1,0-.2,0-.5,0-.9,0-1.3.1-2,.9-3.2,1-3.4,0,.1-.4.9-.6,3.5,0,.2,0,.4,0,.6,0,.8.2,1.5.4,2.2.2.4.4.9.6,1.3h0c.4.7.7,1.1.7,1.2,0,0-.2-.2-.4-.4-.7-.6-2.1-1.6-4.3-2.1-5.4-1.4-5.5-2.5-5.6-3.5,0-1,1.9-1.6,1.6-3.4-.3-1.8,0-1.9.5-2.4.5-.4,2.1-1.2,2.1-3.7-.3,1-.7,1.5-1.8,2.2s-5,2.4-5,4.7c0,5.1,7.3,7,9.6,7.8-1.9,1.3-2.3,2.3-2.3,2.3,0,0,3.2-1,6.9,2.1,0,0,.1,0,.2.1.3.3.6.6.9.9,1.8,2,2,4,2,5.2,0,.6,0,.9,0,.9-.2-.4-1-3.8-3.5-4.9-2.5-1.1-5.3.4-6.1,3.2-1.3,4.2,2.8,5.2,3,5.2-3.1-1-2.8-6,.1-6.9,3.8-1.2,5.3,3.2,5.3,3.2,0,0-1.8-3-4.3-2.4-3.6.8-3,5.7-.5,5.7s1.2-2.2,1.2-2.2c.2,1.3-1.2.9-1.5.5-.3-.4-.6-2.5,1.3-2.7,2-.2,2.1,1.7,2.1,1.7h-.7c1.7,3,3.9,5.3,6.1,6.8.3.2.6.4.9.6,2.5,1.5,5.1,2.2,7.2,2.4.2,0,.4,0,.6,0Z"/>
  <path class="cls-4" d="M94.7,51.9c-1.2.6-2.4,1-3.4,1.3-.3,0-.5.1-.7.2l-.7,1.7c.3,0,.5-.1.7-.2.9-.3,1.7-.6,2.3-1,.5-.7,1.1-1.4,1.8-1.9Z"/>
  <path class="cls-8" d="M79.8,35.8s0,0,0,0c0,0-.2,0-.2,0-.1,0-.3,0-.4,0,.5.4.9.9,1.3,1.5l-.5-1.5s0,0,0,0Z"/>
  <path class="cls-8" d="M64.2,26.1c1.2,0,2.2.1,3.1.5.4.1.8.3,1.1.5,0-.6.2-1.1.5-1.4,0,0,.2-.1.2-.2,0,0,.1,0,.2-.1h-5v.7h0Z"/>
  <path class="cls-8" d="M72.9,25.9c.4-.1.8-.2,1.3-.2s.4,0,.6,0c1.2.1,2.7.9,4,2.3.4-.6.8-1,1.4-1.3.6-.3,1.7-.5,3.1-.7v-.7h-9.9c-.2.2-.3.3-.5.5Z"/>
  <path class="cls-8" d="M83.5,48.3c-.8.3-1.4.8-1.5,1.4,0,.4,0,.7.5,1.1.5.5,1.7,1.5,3.7,1.9l-4.9-13.3c0,.5.2.8.2,1,0,.4,0,.5.2.7.4.6.5,1.5.3,2.1,0,0,0,0,0,.1.1.1.2.3.3.5.2.5,0,1.1-.3,1.5,0,.7,0,1.1,0,1.4,0,0,.1,0,.2,0,.5,0,.9.1,1.3.4.2.1.3.4.3.6,0,.2-.2.5-.4.5Z"/>
  <path class="cls-8" d="M90.8,52.6l6.8-16.3c.9-2.2,1.6-3.9,2.2-4.9s1-1.9,1.5-2.5c.7-.9,1.4-1.5,2.2-1.9.8-.4,1.7-.7,2.8-.8v-.7h-12.8v.7c.7,0,1.3,0,1.8.2.5.1.9.4,1.3.7.4.3.7.8.9,1.5.2.6.3,1.3.3,2,0,1.3-.6,3.4-1.7,6.3l-6.5,16.1-.3.6-.7,1.7-.3.6-.5,1.3-.5-1.4c-1.6-.1-4.3-.6-7-2.1l4.3,11.1h1.2l3.8-9.1.3-.7.7-1.7.3-.7Z"/>
  <path class="cls-8" d="M76.1,34.6c0-.1,0-.2.2-.3.1-.1.3-.2.4-.2s.2,0,.3,0c0,0,.4.2.9.6-.2-.5-.4-1.1-.3-1.8,0-.2,0-.4,0-.6,0-2,.2-4.1-2.9-4.8-.3,0-.5,0-.8,0-.9,0-1.5.4-1.8,1.1-.4.9-.3,2.4.7,4,.1-.8.4-1.7,1.1-2.4h0s0,0,0,0c0,0,0,0,0,0,0,0,0,0,.1,0,.3-.2.8-.5,1.4-.6,0,.5-.2,1.4-.2,1.9,0,1.4.2,2.3.7,3.3Z"/>
  <path class="cls-4" d="M101.4,61.2c0-1.1-.9-2.3-2.1-2.4-.1,0-.2,0-.4,0,.1,0,.3,0,.4,0,1,.2,1.7,1.3,1.7,2.3,0,0,0,.1,0,.2,0,.1,0,.3-.1.4,0,.1,0,.3-.2.4,0,.1-.1.2-.2.3-.7.8-1.9,1.3-2.9,1.3-1,0-2-.4-2.8-1-3.9-3.2-1.5-8.9,2.7-10.4,1.8-.6,3.5-.8,5.2-.6,0-.6.3-1.3.5-1.8-1.2-.1-2.5-.1-3.8,0-1.7.3-3.3.9-4.7,2-.7.5-1.3,1.2-1.8,1.9,0,0,0,.1-.1.2-1.5,2.2-1.9,5.3-.5,7.7,1.1,1.8,3.2,3.1,5.3,3,1.2,0,2.6-.7,3.3-1.7,0-.1.1-.2.2-.3,0-.1.1-.3.2-.4,0-.1,0-.3.1-.4,0-.2,0-.4,0-.6Z"/>
  <path class="cls-4" d="M133.7,55.3c-.8,0-1.6.2-2.4.5.8-.2,1.6-.3,2.4-.2,1.5,0,3.1,1.1,2.9,2.7-.2,1.4-1.5,2.6-2.9,2.8-1.5.3-3.1,0-4.6-.4-2.1-.5-4.1-1.2-6.1-1.9-.1,0-.2,0-.4-.1-.5-.2-1.1-.5-1.6-.7-.1,0-.2,0-.4-.2-.9-.4-1.8-.9-2.7-1.3-.7-.4-1.5-.8-2.2-1.2-.1,0-.2-.1-.4-.2-.1,0-.3-.2-.4-.2-.1,0-.2-.1-.4-.2-2.9-1.7-5.9-3.4-9-4.2-.1.2-.2.5-.3.8-.1.3-.2.7-.3,1,3.1.8,6,2.6,8.9,4.2.1,0,.2.1.3.2.2,0,.4.2.5.3.1,0,.2.1.3.2.7.4,1.4.7,2,1.1.9.5,1.9.9,2.8,1.3.1,0,.2,0,.4.1.6.2,1.1.4,1.6.6.1,0,.2,0,.4.1,2.9,1,6,1.8,9.1,2.1,1.3,0,2.7,0,3.9-.7,1.2-.7,2-1.9,2.1-3.3,0-2-1.8-3.2-3.6-3.1Z"/>
  <path class="cls-8" d="M100.4,61.9c0-.1,0-.2.1-.4-.6-.7-1.1-1.4-1.5-2.3,0,0,0-.2-.1-.3,0,0,0,.2,0,.3.3,1,.8,1.8,1.4,2.6Z"/>
  <path class="cls-8" d="M115.1,54.4c.1,0,.2.1.4.2,0-.4,0-.7,0-1.1-.2-.8-.7-1.7-1.5-2,.4.2.7.5.9.9.3.6.4,1.3.4,2,0,0,0,0,0,0Z"/>
  <path class="cls-8" d="M116.2,63.6c-2.1,1.2-4.7,1.5-7.1,1.4-2.7-.1-5.5-.9-7.5-2.6,0,.1-.1.3-.2.4.1.1.2.2.4.3,2.7,2.3,6.4,3.1,9.9,3,3.6,0,7.3-1.8,9.4-4.8.2-.3.4-.6.7-1-.5-.2-1.1-.4-1.6-.6-.9,1.6-2.3,3-3.9,3.8Z"/>
  <path class="cls-8" d="M103.7,49.5c0,.1-.1.2-.2.4-.2.6-.4,1.2-.5,1.8,0,.1,0,.3,0,.4,0,.4,0,.7,0,1.1.1,3,2.1,5.6,5.1,6,1.8.3,3.8,0,5.3-1,.4-.3.8-.7,1.1-1.1-.2-.1-.4-.2-.6-.3,0,0,0,0,0,0-1.4,1.5-3.7,1.7-5.6,1.3-2.8-.6-4.1-3.2-3.8-5.8,0-.1,0-.3,0-.4,0-.4.2-.7.3-1.1,0-.3.2-.5.3-.7,0-.1.1-.2.2-.4,1-1.6,2.6-2.8,4.4-3.5,3.8-1.5,7.9,0,10.3,3.2,1.7,2.4,1.9,5.3,1,8,.6.2,1.1.5,1.7.7,1.2-3.3,1-7-1.1-9.9-2.9-4-7.9-5.7-12.5-3.8-2.3.9-4.4,2.7-5.4,4.9Z"/>
  <path class="cls-4" d="M70.7,58.9c.1,0,.3,0,.4,0-.1,0-.3,0-.4,0-1.1,0-2.1,1.3-2.1,2.4,0,.2,0,.4,0,.5.1-.1.3-.2.4-.4,0,0,0-.1,0-.2,0-1,.6-2.1,1.6-2.3Z"/>
  <path class="cls-4" d="M40.9,60.7c-1.5.4-3,.7-4.6.4-1.4-.2-2.7-1.3-2.9-2.8-.2-1.6,1.4-2.7,2.9-2.7.8,0,1.6,0,2.4.2-1.5-.6-3.4-.9-4.9.2-1.7,1.2-1.3,3.5,0,4.8,1.2,1.4,3.2,1.7,4.9,1.6,3.1-.3,6.1-1.1,9.1-2.1-.3-.5-.5-1-.7-1.5-2,.8-4.1,1.4-6.1,1.9Z"/>
  <path class="cls-4" d="M70.7,49.9c-1.3-.2-2.6-.2-3.8,0-.1,0-.3,0-.4,0-.6,0-1.1.2-1.7.3-.1,0-.3,0-.4,0-3.2.9-6.1,2.6-9,4.2,0,.6.4,1.2.8,1.8,2.8-1.6,5.8-3.3,8.9-4.2.1,0,.3,0,.4,0,.5-.1,1-.2,1.5-.3h.4c1.7-.2,3.4,0,5.2.6,4.3,1.5,6.7,7.2,2.7,10.4-.8.6-1.8,1-2.8,1-1,0-2.2-.4-2.9-1.3-.1.1-.3.3-.4.4.7,1,2,1.7,3.3,1.7,2.1.1,4.2-1.2,5.3-3,1.5-2.4,1-5.5-.5-7.7-1.4-2.3-4-3.6-6.6-4.1Z"/>
  <path class="cls-4" d="M52.1,56.4c-.9.5-1.8.9-2.7,1.3.2.5.5,1.1.7,1.6.9-.4,1.9-.8,2.8-1.3.7-.3,1.4-.7,2-1.1-.3-.5-.5-1.2-.7-1.8-.7.4-1.5.9-2.2,1.2Z"/>
  <path class="cls-8" d="M69.6,61.9c.6-.8,1.1-1.7,1.4-2.6,0,0,0-.2,0-.3,0,.1,0,.2-.1.3-.4.9-.9,1.6-1.5,2.3,0,.1-.2.2-.3.3-.1.1-.3.2-.4.4,0,0-.2.2-.3.3-2.1,1.7-4.8,2.5-7.5,2.6-2.4.1-4.9-.2-7.1-1.4-1.6-.9-3-2.2-3.9-3.8,0-.1-.1-.2-.2-.3-.3-.5-.5-1-.7-1.6,0-.1,0-.2-.1-.4-.9-2.7-.7-5.7,1-8,2.4-3.3,6.4-4.7,10.3-3.2,1.8.7,3.4,1.9,4.4,3.5.6-.1,1.1-.3,1.7-.3-1-2.2-3.1-4-5.4-4.9-4.6-1.9-9.6-.2-12.5,3.8-2.1,2.8-2.3,6.6-1.1,9.9,0,.1,0,.2.1.4.2.5.5,1,.7,1.5,0,.1.1.2.2.3.2.3.4.7.7,1,2.2,3,5.8,4.7,9.4,4.8,3.5,0,7.2-.7,9.9-3,.1-.1.3-.2.4-.3s.2-.2.3-.3c.1-.1.3-.3.4-.4,0,0,.2-.2.3-.3Z"/>
  <path class="cls-8" d="M56.2,51.4c-.8.3-1.3,1.2-1.5,2,0,.4-.1.7,0,1.1,0,.1,0,.3,0,.4,0,.6.3,1.3.6,1.8,0,.1.1.2.2.3.3.4.7.8,1.1,1.1,1.5,1.1,3.5,1.3,5.3,1,3-.5,5-3,5.1-6,0-.4,0-.7,0-1.1-.5,0-1,.2-1.5.3.3,2.6-1,5.1-3.8,5.8-1.9.4-4.2.2-5.6-1.3,0,0,0,0,0,0,0,0-.2-.2-.2-.3-.4-.5-.6-1.1-.8-1.7,0-.1,0-.3,0-.4,0-.7,0-1.4.4-2,.2-.3.5-.6.9-.9Z"/>
  <path class="cls-4" d="M17.1,148.3h3.3c.3,0,.5,0,.7,0,.2,0,.4.1.6.3.2.1.3.3.4.5,0,.2.1.4.1.7s0,.6-.2.8c-.1.2-.3.4-.4.5.2.1.4.3.6.5.1.2.2.5.2.9s0,.5-.1.7c0,.2-.2.4-.4.5-.2.1-.4.2-.6.3-.2,0-.5,0-.7,0h-3.5v-5.7ZM20.4,150.7c.2,0,.4,0,.5-.1.1,0,.2-.3.2-.5s0-.4-.2-.5c-.1,0-.3-.2-.5-.2h-2.2v1.4h2.2ZM20.6,153.1c.2,0,.4,0,.5-.1.1,0,.2-.3.2-.5s0-.4-.2-.5c-.1,0-.3-.2-.5-.2h-2.3v1.4h2.3Z"/>
  <path class="cls-4" d="M28.9,151.6l-2.2-3.3h1.4l1.4,2.2,1.4-2.2h1.4l-2.2,3.3v2.4h-1.1v-2.4h0Z"/>
  <path class="cls-4" d="M44.9,148.3h1.5l2.3,4.2v-4.2h1.1v5.7h-1.5l-2.3-4.2v4.2h-1.1v-5.7Z"/>
  <path class="cls-4" d="M56.1,153.9c-.3,0-.6-.3-.8-.5-.2-.2-.4-.5-.5-.9-.1-.4-.2-.8-.2-1.3s0-1,.2-1.3c.1-.4.3-.7.5-.9.2-.2.5-.4.8-.5.3,0,.6-.1,1-.1h2.1v1h-2c-.2,0-.4,0-.5,0-.2,0-.3.1-.4.2-.1.1-.2.2-.3.4,0,.2-.1.4-.2.7h3.4v1h-3.4c0,.3,0,.5.2.7,0,.2.2.3.3.4.1.1.3.2.4.2s.3,0,.5,0h1.9v1h-2.1c-.3,0-.7,0-1-.1Z"/>
  <path class="cls-4" d="M64.2,148.3h3.4c.3,0,.5,0,.7,0,.2,0,.4.2.6.3.2.1.3.3.4.5,0,.2.1.5.1.8s0,.5,0,.7c0,.2-.2.4-.3.5-.1.1-.3.3-.4.3-.2,0-.3.1-.5.2l1.3,2.2h-1.3l-1.2-2.2h-1.5v2.2h-1.1v-5.7h0ZM67.6,150.9c.2,0,.4,0,.5-.2s.2-.3.2-.6,0-.5-.2-.6c-.1-.1-.3-.2-.5-.2h-2.2v1.5h2.2Z"/>
  <path class="cls-4" d="M73.7,148.3h1.3l1.9,4.5,1.9-4.5h1.3l-2.5,5.7h-1.2l-2.5-5.7Z"/>
  <path class="cls-4" d="M85.5,148.3h1.2l2.5,5.7h-1.3l-.5-1.1h-2.8l-.5,1.1h-1.3l2.6-5.7ZM87.1,151.9l-1-2.3-1,2.3h2Z"/>
  <path class="cls-4" d="M93.6,148.3h1.1v3.4c0,.3,0,.5.1.6,0,.2.2.3.3.4.1,0,.3.2.5.2.2,0,.4,0,.6,0h1.5v1h-1.5c-.4,0-.7,0-1-.1-.3,0-.6-.2-.8-.4-.2-.2-.4-.4-.6-.7-.1-.3-.2-.6-.2-1.1v-3.4h0Z"/>
  <path class="cls-4" d="M111.8,153.9c-.3,0-.6-.3-.8-.5-.2-.2-.4-.5-.5-.9-.1-.4-.2-.8-.2-1.3s0-1,.2-1.3.3-.7.5-.9.5-.4.8-.5c.3,0,.6-.1,1-.1h2.8v1h-2.6c-.2,0-.4,0-.6,0-.2,0-.3.2-.5.3s-.2.3-.3.6c0,.2-.1.5-.1.9s0,.7.1.9c0,.2.2.4.3.6.1.1.3.2.5.3.2,0,.4,0,.6,0h1.5v-1.4h-1.1v-1h2.3v3.3h-2.8c-.3,0-.7,0-1-.2Z"/>
  <path class="cls-4" d="M120.6,148.3h3.4c.3,0,.5,0,.7,0,.2,0,.4.2.6.3.2.1.3.3.4.5,0,.2.1.5.1.8s0,.5,0,.7c0,.2-.2.4-.3.5-.1.1-.3.3-.4.3-.2,0-.3.1-.5.2l1.3,2.2h-1.3l-1.2-2.2h-1.5v2.2h-1.1v-5.7h0ZM124,150.9c.2,0,.4,0,.5-.2.1-.1.2-.3.2-.6s0-.5-.2-.6c-.1-.1-.3-.2-.5-.2h-2.2v1.5h2.2Z"/>
  <path class="cls-4" d="M130.5,151.2c0-.5,0-1,.2-1.4s.3-.7.6-.9c.3-.2.5-.4.9-.5.3,0,.7-.2,1.1-.2s.7,0,1.1.2c.3,0,.6.3.9.5.3.2.5.6.6.9.1.4.2.8.2,1.4s0,1-.2,1.4c-.1.4-.4.7-.6.9-.3.2-.5.4-.9.5-.3,0-.7.2-1.1.2s-.7,0-1.1-.2c-.3-.1-.6-.3-.9-.5-.3-.2-.4-.5-.6-.9-.1-.4-.2-.9-.2-1.4ZM133.3,153.2c.2,0,.4,0,.6,0,.2,0,.4-.2.5-.3.1-.1.3-.4.4-.6,0-.3.1-.6.1-1s0-.7-.1-1c0-.3-.2-.5-.4-.6-.1-.1-.3-.3-.5-.3-.2,0-.4,0-.6,0s-.4,0-.6,0c-.2,0-.4.2-.5.3s-.3.4-.4.6c0,.3-.1.6-.1,1s0,.7.1,1c0,.3.2.5.4.6.1.1.3.3.5.3s.4,0,.6,0Z"/>
  <path class="cls-4" d="M140.8,148.3h1.1v3.3c0,.3,0,.5.1.7,0,.2.2.4.3.5.1.1.3.2.5.2s.4,0,.6,0,.4,0,.6,0,.3-.1.5-.2c.1-.1.2-.3.3-.5,0-.2.1-.4.1-.7v-3.3h1.1v3.3c0,.5,0,.9-.2,1.2-.1.3-.3.6-.6.8s-.5.3-.8.4c-.3,0-.6.1-1,.1s-.7,0-1-.1c-.3,0-.6-.2-.8-.4-.2-.2-.4-.5-.6-.8-.1-.3-.2-.7-.2-1.2v-3.3h0Z"/>
  <path class="cls-4" d="M150.9,148.3h3.3c.3,0,.5,0,.7,0,.2,0,.4.2.6.3s.3.3.4.6c0,.2.1.5.1.9s0,.7-.1.9c0,.3-.2.4-.4.6s-.4.3-.6.3c-.2,0-.5,0-.7,0h-2.2v1.9h-1.1v-5.7ZM154.3,151.2c0,0,.2,0,.3,0,0,0,.2,0,.2-.2,0,0,.1-.2.2-.3,0-.1,0-.3,0-.5,0-.3,0-.6-.2-.7-.1-.1-.3-.2-.6-.2h-2.1v1.9h2.2Z"/>
</svg>